<svg xmlns="http://www.w3.org/2000/svg" viewBox="0 0 18 18">
   
    <path class="b" fill="#fff"
        d="M12.32,2a1.91,1.91,0,0,0-1.77-.31L4.94,3.43a.34.34,0,0,1-.2,0H2A2.06,2.06,0,0,0,0,5.53v6.86a2,2,0,0,0,2,2.06H4.64a1,1,0,0,1,.3,0l5.57,1.82a2.11,2.11,0,0,0,.61.1A1.78,1.78,0,0,0,12.29,16a2,2,0,0,0,.81-1.65V3.64A2,2,0,0,0,12.32,2ZM4.24,13.11H2a.68.68,0,0,1-.67-.68V5.56A.69.69,0,0,1,2,4.87H4.24v8.24Zm7.54,1.21a.71.71,0,0,1-.26.55.65.65,0,0,1-.6.1L5.58,13.29V4.67L10.92,3a.65.65,0,0,1,.6.1.71.71,0,0,1,.26.55V14.32Zm3.5-8a.74.74,0,0,0-.77.75.69.69,0,0,0,.64.72,1.59,1.59,0,0,1,1.41,1.55,1.49,1.49,0,0,1-1.41,1.54.71.71,0,0,0-.64.76.59.59,0,0,0,.23.52.7.7,0,0,0,.48.2h.06a3,3,0,0,0,0-6Zm-.34,5.59Z"
        transform="translate(0)" />
</svg>